<svg data-v-fde0c5aa="" xmlns="http://www.w3.org/2000/svg" viewBox="0 0 300 300" class="iconLeft"><!----><defs data-v-fde0c5aa=""><!----></defs><rect data-v-fde0c5aa="" fill="#002244" x="0" y="0" width="300px" height="300px" class="logo-background-square"></rect><defs data-v-fde0c5aa=""><!----></defs><g data-v-fde0c5aa="" id="589e1aab-5e61-4163-927f-652b1d8361e1" fill="#ffffff" transform="matrix(5.401011827785336,0,0,5.401011827785336,143.77022750062804,88.37445586909833)"><path d="M8.74 6.45L8.74 6.45Q8.74 7.35 8.34 8.13Q7.95 8.90 7.36 9.44Q6.78 9.98 5.98 10.43L5.98 10.43Q4.62 11.17 3.05 11.56L3.05 11.56Q2.90 12.82 2.90 13.71L2.90 13.71Q2.90 15.05 3.43 15.62L3.43 15.62Q3.00 16.13 2.46 16.13L2.46 16.13Q1.37 16.13 1.37 14.28L1.37 14.28Q1.37 13.51 1.90 10.04Q2.44 6.57 2.44 5.58Q2.44 4.59 2.23 3.93L2.23 3.93Q4.12 3.58 5.28 3.58L5.28 3.58Q8.74 3.58 8.74 6.45ZM7.27 6.75L7.27 6.75Q7.27 4.44 4.97 4.44L4.97 4.44Q4.52 4.44 4.02 4.52L4.02 4.52Q4.02 5.39 3.65 7.68Q3.28 9.97 3.18 10.61L3.18 10.61Q4.80 10.28 5.98 9.39L5.98 9.39Q6.58 8.93 6.92 8.25Q7.27 7.57 7.27 6.75ZM11.91 5.07L11.91 5.07Q11.91 7.97 11.49 11.10L11.49 11.10Q11.09 14.27 9.93 16.73L9.93 16.73Q9.38 17.89 8.57 18.56Q7.76 19.24 6.76 19.24L6.76 19.24Q6.10 19.24 5.59 18.91Q5.08 18.59 5.08 17.91Q5.08 17.22 5.59 16.74L5.59 16.74Q5.82 17.43 6.16 17.77Q6.50 18.12 7.14 18.12Q7.78 18.12 8.29 17.50Q8.81 16.88 9.14 15.82Q9.48 14.76 9.72 13.50Q9.95 12.25 10.08 10.79L10.08 10.79Q10.32 8.06 10.32 5.80L10.32 5.80Q10.32 4.49 10.02 3.91L10.02 3.91Q10.16 3.78 10.45 3.68Q10.74 3.58 10.96 3.58L10.96 3.58Q11.44 3.58 11.68 3.93Q11.91 4.27 11.91 5.07ZM17.81 3.61Q19.50 3.61 20.41 4.32Q21.32 5.03 21.32 6.01Q21.32 6.99 20.66 7.86Q20.01 8.74 18.80 9.32L18.80 9.32Q21.52 9.74 21.52 11.97L21.52 11.97Q21.52 13.05 20.82 14.13L20.82 14.13Q19.49 16.18 16.72 16.18L16.72 16.18Q15.33 16.18 14.73 15.76Q14.13 15.34 14.13 14.49Q14.13 13.64 14.66 10.10Q15.19 6.57 15.19 5.58Q15.19 4.59 14.98 3.93L14.98 3.93Q16.70 3.61 17.81 3.61L17.81 3.61ZM16.03 10.05L16.03 10.05Q15.65 12.54 15.65 13.49Q15.65 14.43 15.76 14.85L15.76 14.85Q16.30 15.20 17.09 15.20L17.09 15.20Q18.42 15.20 19.22 14.32Q20.02 13.44 20.02 12.36Q20.02 11.28 19.34 10.59Q18.66 9.90 17.23 9.86L17.23 9.86Q16.62 10.00 16.03 10.05ZM16.14 9.28Q17.98 9.17 18.91 8.37Q19.85 7.57 19.85 6.60Q19.85 5.63 19.31 5.03Q18.77 4.42 17.65 4.42L17.65 4.42Q17.32 4.42 16.77 4.52L16.77 4.52Q16.76 5.33 16.14 9.28L16.14 9.28Z"></path></g><defs data-v-fde0c5aa=""><!----></defs><g data-v-fde0c5aa="" id="d4f7d70d-4356-47b4-85d9-3bf23c8e1d1d" stroke="none" fill="#07A0B4" transform="matrix(1.2970644189098108,0,0,1.2970644189098108,23.160212906585148,85.26805228184817)"><g clip-rule="evenodd"><path d="M12.983 10.59l17.018 88.223-5.872-59.049 29.021-1.892-.054-9.883L64.549 1 53.622 18.977z"></path><path d="M59.389 54.548l5.16-53.541-8.74 39.716-19.612 1.045 1.57 20.462-7.766 36.583 12.057-39.899z"></path><path d="M62.8 67.182l.549-10.453-15.979 3.755-.032 11.797-17.337 26.532 21.68-27.616zM65.711 62.394l14.841-4.731 1.509-12.532-15.899 2.095zM72.07 44.502l10.988-1.417 1.581-10.278-8.079-.373L64.549 1l8.43 30.967z"></path><path d="M87.413 31.294l1.256-9.506-9.544-2.694L64.549 1l14.483 22.437-.422 7z"></path></g></g><!----></svg>